REM DIRINDEX 1\2,1\3\5,1\3\6,1\4\7,1\4\8
REM DIRNAME cjc139,folder01,folder02,folder03,folder04,folder05,folder06,folder07
TITLE ""
FILE "JE_19.mp3" MP3
  TRACK 01 AUDIO
    TITLE "0:"
    INDEX 01 00:00:00
  TRACK 02 AUDIO
    TITLE "7:cjc139_3842"
    INDEX 01 00:00:17
  TRACK 03 AUDIO
    TITLE "0:"
    INDEX 01 00:02:30
  TRACK 04 AUDIO
    TITLE "8:cjc139_3843"
    INDEX 01 00:05:14
  TRACK 05 AUDIO
    TITLE "0:"
    INDEX 01 00:07:23
  TRACK 06 AUDIO
    TITLE "7:cjc139_3844"
    INDEX 01 00:10:08
  TRACK 07 AUDIO
    TITLE "0:"
    INDEX 01 00:12:22
  TRACK 08 AUDIO
    TITLE "8:cjc139_3845"
    INDEX 01 00:15:07
  TRACK 09 AUDIO
    TITLE "0:"
    INDEX 01 00:17:23
  TRACK 10 AUDIO
    TITLE "7:cjc139_3846"
    INDEX 01 00:20:06
  TRACK 11 AUDIO
    TITLE "0:"
    INDEX 01 00:22:11
  TRACK 12 AUDIO
    TITLE "8:cjc139_3847"
    INDEX 01 00:24:74
  TRACK 13 AUDIO
    TITLE "0:"
    INDEX 01 00:27:22
  TRACK 14 AUDIO
    TITLE "7:cjc139_3848"
    INDEX 01 00:30:10
  TRACK 15 AUDIO
    TITLE "0:"
    INDEX 01 00:33:32
  TRACK 16 AUDIO
    TITLE "8:cjc139_3849"
    INDEX 01 00:36:17
  TRACK 17 AUDIO
    TITLE "0:"
    INDEX 01 00:39:39
  TRACK 18 AUDIO
    TITLE "7:cjc139_3850"
    INDEX 01 00:42:25
  TRACK 19 AUDIO
    TITLE "0:"
    INDEX 01 00:44:61
  TRACK 20 AUDIO
    TITLE "8:cjc139_3851"
    INDEX 01 00:47:44
  TRACK 21 AUDIO
    TITLE "0:"
    INDEX 01 00:49:59
  TRACK 22 AUDIO
    TITLE "7:cjc139_3852"
    INDEX 01 00:52:43
  TRACK 23 AUDIO
    TITLE "0:"
    INDEX 01 00:55:14
  TRACK 24 AUDIO
    TITLE "8:cjc139_3853"
    INDEX 01 00:57:72
  TRACK 25 AUDIO
    TITLE "0:"
    INDEX 01 01:00:41
  TRACK 26 AUDIO
    TITLE "7:cjc139_3854"
    INDEX 01 01:03:27
  TRACK 27 AUDIO
    TITLE "0:"
    INDEX 01 01:05:40
  TRACK 28 AUDIO
    TITLE "8:cjc139_3855"
    INDEX 01 01:08:25
  TRACK 29 AUDIO
    TITLE "0:"
    INDEX 01 01:10:57
  TRACK 30 AUDIO
    TITLE "7:cjc139_3856"
    INDEX 01 01:13:44
  TRACK 31 AUDIO
    TITLE "0:"
    INDEX 01 01:14:59
  TRACK 32 AUDIO
    TITLE "8:cjc139_3857"
    INDEX 01 01:17:41
  TRACK 33 AUDIO
    TITLE "0:"
    INDEX 01 01:19:28
  TRACK 34 AUDIO
    TITLE "7:cjc139_3858"
    INDEX 01 01:22:13
  TRACK 35 AUDIO
    TITLE "0:"
    INDEX 01 01:23:67
  TRACK 36 AUDIO
    TITLE "8:cjc139_3859"
    INDEX 01 01:26:50
  TRACK 37 AUDIO
    TITLE "0:"
    INDEX 01 01:28:51
  TRACK 38 AUDIO
    TITLE "7:cjc139_3860"
    INDEX 01 01:31:36
  TRACK 39 AUDIO
    TITLE "0:"
    INDEX 01 01:33:05
  TRACK 40 AUDIO
    TITLE "8:cjc139_3861"
    INDEX 01 01:35:65
  TRACK 41 AUDIO
    TITLE "0:"
    INDEX 01 01:37:36
  TRACK 42 AUDIO
    TITLE "7:cjc139_3862"
    INDEX 01 01:40:21
  TRACK 43 AUDIO
    TITLE "0:"
    INDEX 01 01:41:36
  TRACK 44 AUDIO
    TITLE "8:cjc139_3863"
    INDEX 01 01:44:19
  TRACK 45 AUDIO
    TITLE "0:"
    INDEX 01 01:45:59
  TRACK 46 AUDIO
    TITLE "7:cjc139_3864"
    INDEX 01 01:48:44
  TRACK 47 AUDIO
    TITLE "0:"
    INDEX 01 01:50:37
  TRACK 48 AUDIO
    TITLE "8:cjc139_3865"
    INDEX 01 01:53:21
  TRACK 49 AUDIO
    TITLE "0:"
    INDEX 01 01:55:40
  TRACK 50 AUDIO
    TITLE "7:cjc139_3866"
    INDEX 01 01:58:25
  TRACK 51 AUDIO
    TITLE "0:"
    INDEX 01 02:00:53
  TRACK 52 AUDIO
    TITLE "8:cjc139_3867"
    INDEX 01 02:03:38
  TRACK 53 AUDIO
    TITLE "0:"
    INDEX 01 02:06:14
  TRACK 54 AUDIO
    TITLE "7:cjc139_3868"
    INDEX 01 02:09:01
  TRACK 55 AUDIO
    TITLE "0:"
    INDEX 01 02:12:33
  TRACK 56 AUDIO
    TITLE "8:cjc139_3869"
    INDEX 01 02:15:17
  TRACK 57 AUDIO
    TITLE "0:"
    INDEX 01 02:18:41
  TRACK 58 AUDIO
    TITLE "7:cjc139_3870"
    INDEX 01 02:21:26
  TRACK 59 AUDIO
    TITLE "0:"
    INDEX 01 02:23:30
  TRACK 60 AUDIO
    TITLE "8:cjc139_3871"
    INDEX 01 02:26:15
  TRACK 61 AUDIO
    TITLE "0:"
    INDEX 01 02:28:20
  TRACK 62 AUDIO
    TITLE "7:cjc139_3872"
    INDEX 01 02:31:04
  TRACK 63 AUDIO
    TITLE "0:"
    INDEX 01 02:33:50
  TRACK 64 AUDIO
    TITLE "8:cjc139_3873"
    INDEX 01 02:36:35
  TRACK 65 AUDIO
    TITLE "0:"
    INDEX 01 02:39:04
  TRACK 66 AUDIO
    TITLE "7:cjc139_3874"
    INDEX 01 02:41:64
  TRACK 67 AUDIO
    TITLE "0:"
    INDEX 01 02:45:14
  TRACK 68 AUDIO
    TITLE "8:cjc139_3875"
    INDEX 01 02:47:74
  TRACK 69 AUDIO
    TITLE "0:"
    INDEX 01 02:51:05
  TRACK 70 AUDIO
    TITLE "7:cjc139_3876"
    INDEX 01 02:53:67
  TRACK 71 AUDIO
    TITLE "0:"
    INDEX 01 02:56:65
  TRACK 72 AUDIO
    TITLE "8:cjc139_3877"
    INDEX 01 02:59:50
  TRACK 73 AUDIO
    TITLE "0:"
    INDEX 01 03:02:30
  TRACK 74 AUDIO
    TITLE "7:cjc139_3878"
    INDEX 01 03:05:15
  TRACK 75 AUDIO
    TITLE "0:"
    INDEX 01 03:08:08
  TRACK 76 AUDIO
    TITLE "8:cjc139_3879"
    INDEX 01 03:10:67
  TRACK 77 AUDIO
    TITLE "0:"
    INDEX 01 03:14:14
  TRACK 78 AUDIO
    TITLE "7:cjc139_3880"
    INDEX 01 03:17:01
  TRACK 79 AUDIO
    TITLE "0:"
    INDEX 01 03:19:23
  TRACK 80 AUDIO
    TITLE "8:cjc139_3881"
    INDEX 01 03:22:10
  TRACK 81 AUDIO
    TITLE "0:"
    INDEX 01 03:24:65
  TRACK 82 AUDIO
    TITLE "7:cjc139_3882"
    INDEX 01 03:27:50
  TRACK 83 AUDIO
    TITLE "0:"
    INDEX 01 03:29:70
  TRACK 84 AUDIO
    TITLE "8:cjc139_3883"
    INDEX 01 03:32:55
  TRACK 85 AUDIO
    TITLE "0:"
    INDEX 01 03:35:36
  TRACK 86 AUDIO
    TITLE "7:cjc139_3884"
    INDEX 01 03:38:22
  TRACK 87 AUDIO
    TITLE "0:"
    INDEX 01 03:40:47
  TRACK 88 AUDIO
    TITLE "8:cjc139_3885"
    INDEX 01 03:43:31
  TRACK 89 AUDIO
    TITLE "0:"
    INDEX 01 03:45:42
  TRACK 90 AUDIO
    TITLE "7:cjc139_3886"
    INDEX 01 03:48:31
  TRACK 91 AUDIO
    TITLE "0:"
    INDEX 01 03:50:31
  TRACK 92 AUDIO
    TITLE "8:cjc139_3887"
    INDEX 01 03:53:16
  TRACK 93 AUDIO
    TITLE "0:"
    INDEX 01 03:55:50
  TRACK 94 AUDIO
    TITLE "7:cjc139_3888"
    INDEX 01 03:58:31
  TRACK 95 AUDIO
    TITLE "0:"
    INDEX 01 04:02:41
  TRACK 96 AUDIO
    TITLE "8:cjc139_3889"
    INDEX 01 04:05:25
  TRACK 97 AUDIO
    TITLE "0:"
    INDEX 01 04:09:01
  TRACK 98 AUDIO
    TITLE "7:cjc139_3890"
    INDEX 01 04:11:59
  TRACK 99 AUDIO
    TITLE "0:"
    INDEX 01 04:14:67
  TRACK 100 AUDIO
    TITLE "8:cjc139_3891"
    INDEX 01 04:17:52
  TRACK 101 AUDIO
    TITLE "0:"
    INDEX 01 04:20:60
